<svg width="370" height="296" viewBox="0 0 370 296" fill="none" xmlns="http://www.w3.org/2000/svg">
<path fill-rule="evenodd" clip-rule="evenodd" d="M12.5477 56.1914V182.065L74.6568 185.543C101.034 187.019 126.25 196.882 146.63 213.693L154.764 220.402L169.35 236.376L180.898 253.628C180.898 253.628 174.358 222.37 162.665 206.984C153.711 195.204 146.172 190.448 134.207 182.9L134.205 182.899C133.771 182.625 133.331 182.347 132.884 182.065C121.501 174.877 114.486 171.784 101.889 167.369C88.5576 162.697 78.0226 161.441 66.5781 160.077C62.5139 159.592 58.3349 159.094 53.8753 158.424C43.8257 156.915 40.7707 165.879 40.2041 165.708C39.8112 165.59 40.6146 161.08 41.1123 145.645C42.3278 107.947 41.1123 45.9681 41.1123 45.9681H25.3105C15.5863 45.9681 12.5477 56.1914 12.5477 56.1914ZM16.8018 37.0228C29.5648 33.8281 41.1123 36.3838 41.1123 36.3838C41.1123 36.3838 40.2904 30.4413 41.1123 26.7995C42.5235 20.5465 46.0109 17.6923 50.5928 13.9424C51.0678 13.5537 51.5546 13.1553 52.052 12.7425C56.8832 8.73351 60.398 7.41539 66.0422 5.29876C66.2383 5.22522 66.4369 5.15072 66.6383 5.0751C83.4022 -1.21927 94.7315 1.58678 112.22 5.0751C125.789 7.78155 133.274 10.7651 145.647 17.2152C153.853 21.4925 158.51 24.0352 165.704 29.9943C174.408 37.2047 178.833 42.1477 185.152 51.7187C185.152 55.4616 185.152 61.303 185.152 61.303C185.152 61.303 171.627 45.0388 161.449 36.3838C154.909 30.8218 151.165 27.6832 143.824 23.3631C132.358 16.6151 125.128 13.8112 112.22 11.223C94.726 7.71483 83.4203 6.47339 66.6383 12.7425C62.7325 14.2016 60.4188 14.8883 56.9141 17.2152C52.5129 20.1373 48.4693 21.4948 47.1899 26.7995C46.6066 29.2182 47.1899 33.1891 47.1899 33.1891C47.1899 33.1891 48.4054 95.1675 47.1899 132.866C46.6922 148.301 45.8889 152.811 46.2817 152.929C46.8483 153.099 54.0308 146.558 59.9529 145.645C64.8987 144.883 68.5915 146.813 72.6557 147.297C84.1002 148.662 94.6352 149.918 107.966 154.59C120.563 159.005 127.579 162.098 138.962 169.286C139.409 169.568 139.849 169.846 140.284 170.121C152.25 177.669 159.789 182.425 168.742 194.205C180.436 209.591 185.152 225.514 185.152 225.514C185.152 225.514 185.152 245.959 185.152 259.059C185.152 272.159 185.152 279.504 185.152 292.604C174.102 295.799 185.87 295.799 174.82 292.604C169.396 291.036 163.635 284.424 156.922 276.719C149.96 268.728 141.973 259.562 132.277 253.628C118.095 244.95 108.659 241.97 93.6343 237.225C92.7588 236.949 91.8643 236.666 90.9488 236.376C72.4083 230.504 61.5697 228.435 42.3281 226.153C37.6431 225.597 33.6647 225.757 29.8635 225.91C24.2705 226.134 19.0608 226.343 12.5477 224.236C12.5477 224.236 5.77058 219.781 3.43105 215.291C1.43978 211.469 1 204.429 1 204.429V56.1914C1 56.1914 4.03881 40.2175 16.8018 37.0228ZM106.751 206.984C53.2677 188.618 12.5477 196.761 12.5477 196.761C12.5477 196.761 11.9399 215.93 22.2719 212.735C22.2719 212.735 74.1156 213.748 104.32 226.153C137.746 239.882 177.859 277.269 177.859 277.269C177.859 277.269 160.234 225.351 106.751 206.984Z" fill="#070707"/>
<path d="M137.139 55.5524C134.662 57.0517 132.277 61.303 132.277 61.303C132.277 61.303 131.599 66.0621 132.277 68.9704C132.908 71.6802 133.351 73.4849 135.315 75.36C137.372 77.323 142.001 77.9158 142.001 77.9158C142.001 77.9158 146.409 77.0326 148.686 75.36C151.178 73.5299 153.548 68.9704 153.548 68.9704C153.548 68.9704 154.559 64.1026 153.548 61.303C152.534 58.4937 148.686 55.5524 148.686 55.5524C148.686 55.5524 141.047 53.1868 137.139 55.5524Z" fill="#0C0B0B"/>
<path d="M71.5004 93.8896C71.5004 93.8896 91.1514 94.9545 98.2419 97.0844C105.333 99.2142 119.514 104.496 119.514 108.586C119.514 112.675 117.083 114.975 115.867 115.614C115.867 115.614 105.552 109.016 98.2419 106.669C88.665 103.594 72.7159 104.113 72.7159 104.113C72.7159 104.113 69.846 101.349 69.6771 99.0013C69.5242 96.8754 71.5004 93.8896 71.5004 93.8896Z" fill="#99C9D3"/>
<path d="M71.5004 69.6094C71.5004 69.6094 91.1514 70.6743 98.2419 72.8042C105.333 74.934 119.514 80.216 119.514 84.3053C119.514 88.3946 117.083 90.6949 115.867 91.3338C115.867 91.3338 105.552 84.7356 98.2419 82.3885C88.665 79.3134 72.7159 79.8326 72.7159 79.8326C72.7159 79.8326 69.846 77.0684 69.6771 74.721C69.5242 72.5951 71.5004 69.6094 71.5004 69.6094Z" fill="#99C9D3"/>
<path d="M71.5004 42.7734C71.5004 42.7734 91.1514 43.8383 98.2419 45.9681C105.333 48.098 119.514 53.38 119.514 57.4693C119.514 61.5586 117.083 63.8588 115.867 64.4978C115.867 64.4978 105.552 57.8996 98.2419 55.5524C88.665 52.4773 72.7159 52.9966 72.7159 52.9966C72.7159 52.9966 69.846 50.2323 69.6771 47.885C69.5242 45.7591 71.5004 42.7734 71.5004 42.7734Z" fill="#99C9D3"/>
<path d="M72.7159 119.448C72.7159 119.448 92.3669 120.513 99.4575 122.643C106.548 124.772 120.729 130.054 120.729 134.144C120.729 138.233 118.298 140.533 117.083 141.172C117.083 141.172 106.767 134.574 99.4575 132.227C89.8806 129.152 73.9315 129.671 73.9315 129.671C73.9315 129.671 71.0615 126.907 70.8926 124.559C70.7397 122.433 72.7159 119.448 72.7159 119.448Z" fill="#99C9D3"/>
<path d="M185.152 99.0013H143.824C143.824 99.0013 141.195 100.11 140.178 101.557C139.418 102.638 138.962 104.752 138.962 104.752V118.809C138.962 118.809 140.063 126.117 142.001 130.31C143.93 134.485 148.686 139.894 148.686 139.894C148.686 139.894 153.731 146.365 157.803 149.479C161.495 152.302 163.809 153.694 168.135 155.229C171.575 156.45 173.675 156.488 177.251 157.146C180.326 157.712 182.057 157.992 185.152 158.424V145.645C185.152 145.645 181.038 145.478 178.467 145.006C176.322 144.612 175.141 144.071 173.199 143.182L172.997 143.089C170.756 142.064 169.614 141.23 167.527 139.894C165.334 138.491 164.022 137.798 162.057 136.061C159.613 133.9 158.457 132.392 156.587 129.671C154.224 126.232 153.229 124.023 151.725 120.087C150.886 117.89 150.232 116.678 149.902 114.336C149.623 112.361 149.902 109.225 149.902 109.225H185.152V99.0013Z" fill="#070707"/>
<path d="M12.5477 56.1914V182.065L74.6568 185.543C101.034 187.019 126.25 196.882 146.63 213.693L154.764 220.402L169.35 236.376L180.898 253.628C180.898 253.628 174.358 222.37 162.665 206.984C153.711 195.204 146.172 190.448 134.207 182.9L134.205 182.899C133.771 182.625 133.331 182.347 132.884 182.065C121.501 174.877 114.486 171.784 101.889 167.369C88.5576 162.697 78.0226 161.441 66.5781 160.077C62.5139 159.592 58.3349 159.094 53.8753 158.424C43.8257 156.915 40.7707 165.879 40.2041 165.708C39.8112 165.59 40.6146 161.08 41.1123 145.645C42.3278 107.947 41.1123 45.9681 41.1123 45.9681H25.3105C15.5863 45.9681 12.5477 56.1914 12.5477 56.1914Z" fill="url(#paint0_radial_331_2164)"/>
<path d="M106.751 206.984C53.2677 188.618 12.5477 196.761 12.5477 196.761C12.5477 196.761 11.9399 215.93 22.2719 212.735C22.2719 212.735 74.1156 213.748 104.32 226.153C137.746 239.882 177.859 277.269 177.859 277.269C177.859 277.269 160.234 225.351 106.751 206.984Z" fill="url(#paint1_radial_331_2164)"/>
<path d="M185.152 109.225H149.902C149.902 109.225 149.623 112.361 149.902 114.336C150.232 116.678 150.886 117.89 151.725 120.087C153.229 124.023 154.224 126.232 156.587 129.671C158.457 132.392 159.613 133.9 162.057 136.061C164.022 137.798 165.334 138.491 167.527 139.894C169.614 141.23 170.756 142.064 172.997 143.089L173.199 143.182C175.141 144.071 176.322 144.612 178.467 145.006C181.038 145.478 185.152 145.645 185.152 145.645V127.435V109.225Z" fill="#00EEF9"/>
<path d="M12.5477 182.065V56.1914C12.5477 56.1914 15.5863 45.9681 25.3105 45.9681M12.5477 182.065L74.6568 185.543C101.034 187.019 126.25 196.882 146.63 213.693L154.764 220.402L169.35 236.376L180.898 253.628C180.898 253.628 174.358 222.37 162.665 206.984C153.711 195.204 146.172 190.448 134.207 182.9L134.205 182.899C133.771 182.625 133.331 182.347 132.884 182.065C121.501 174.877 114.486 171.784 101.889 167.369C88.5576 162.697 78.0226 161.441 66.5781 160.077C62.5139 159.592 58.3349 159.094 53.8753 158.424C43.8257 156.915 40.7707 165.879 40.2041 165.708C39.8112 165.59 40.6146 161.08 41.1123 145.645C42.3278 107.947 41.1123 45.9681 41.1123 45.9681M12.5477 182.065V196.761M12.5477 196.761C12.5477 196.761 53.2677 188.618 106.751 206.984C160.234 225.351 177.859 277.269 177.859 277.269C177.859 277.269 137.746 239.882 104.32 226.153C74.1156 213.748 22.2719 212.735 22.2719 212.735C11.9399 215.93 12.5477 196.761 12.5477 196.761ZM25.3105 45.9681C35.0347 45.9681 41.1123 45.9681 41.1123 45.9681M25.3105 45.9681H41.1123M41.1123 45.9681V36.3838M41.1123 36.3838C41.1123 36.3838 40.2904 30.4413 41.1123 26.7995C42.5235 20.5465 46.0109 17.6923 50.5928 13.9424C51.0678 13.5537 51.5546 13.1553 52.052 12.7425C56.8832 8.73351 60.398 7.41539 66.0422 5.29876C66.2383 5.22522 66.4369 5.15072 66.6383 5.0751C83.4022 -1.21927 94.7315 1.58678 112.22 5.0751C125.789 7.78155 133.274 10.7651 145.647 17.2152C153.853 21.4925 158.51 24.0352 165.704 29.9943C174.408 37.2047 178.833 42.1477 185.152 51.7187C185.152 55.4616 185.152 61.303 185.152 61.303C185.152 61.303 171.627 45.0388 161.449 36.3838C154.909 30.8218 151.165 27.6832 143.824 23.3631C132.358 16.6151 125.128 13.8112 112.22 11.223C94.726 7.71483 83.4203 6.47339 66.6383 12.7425C62.7325 14.2016 60.4188 14.8883 56.9141 17.2152C52.5129 20.1373 48.4693 21.4948 47.1899 26.7995C46.6066 29.2182 47.1899 33.1891 47.1899 33.1891C47.1899 33.1891 48.4054 95.1675 47.1899 132.866C46.6922 148.301 45.8889 152.811 46.2817 152.929C46.8483 153.099 54.0308 146.558 59.9529 145.645C64.8987 144.883 68.5915 146.813 72.6557 147.297C84.1002 148.662 94.6352 149.918 107.966 154.59C120.563 159.005 127.579 162.098 138.962 169.286C139.409 169.568 139.849 169.846 140.284 170.121C152.25 177.669 159.789 182.425 168.742 194.205C180.436 209.591 185.152 225.514 185.152 225.514C185.152 225.514 185.152 245.959 185.152 259.059C185.152 272.159 185.152 279.504 185.152 292.604C174.102 295.799 185.87 295.799 174.82 292.604C169.396 291.036 163.635 284.424 156.922 276.719C149.96 268.728 141.973 259.562 132.277 253.628C118.095 244.95 108.659 241.97 93.6343 237.225C92.7588 236.949 91.8643 236.666 90.9488 236.376C72.4083 230.504 61.5697 228.435 42.3281 226.153C37.6431 225.597 33.6647 225.757 29.8635 225.91C24.2705 226.134 19.0608 226.343 12.5477 224.236C12.5477 224.236 5.77058 219.781 3.43105 215.291C1.43978 211.469 1 204.429 1 204.429V56.1914C1 56.1914 4.03881 40.2175 16.8018 37.0228C29.5648 33.8281 41.1123 36.3838 41.1123 36.3838ZM185.152 99.0013H143.824C143.824 99.0013 141.195 100.11 140.178 101.557C139.418 102.638 138.962 104.752 138.962 104.752V118.809C138.962 118.809 140.063 126.117 142.001 130.31C143.93 134.485 148.686 139.894 148.686 139.894C148.686 139.894 153.731 146.365 157.803 149.479C161.495 152.302 163.809 153.694 168.135 155.229C171.575 156.45 173.675 156.488 177.251 157.146C180.326 157.712 182.057 157.992 185.152 158.424M185.152 99.0013C185.152 99.0013 185.152 103.014 185.152 109.225M185.152 99.0013V109.225M185.152 158.424V145.645M185.152 158.424C185.152 154.274 185.152 150.346 185.152 145.645M185.152 109.225H149.902C149.902 109.225 149.623 112.361 149.902 114.336C150.232 116.678 150.886 117.89 151.725 120.087C153.229 124.023 154.224 126.232 156.587 129.671C158.457 132.392 159.613 133.9 162.057 136.061C164.022 137.798 165.334 138.491 167.527 139.894C169.614 141.23 170.756 142.064 172.997 143.089M185.152 109.225C185.152 118.334 185.152 132.81 185.152 145.645M185.152 109.225V127.435V145.645M172.997 143.089L173.199 143.182M172.997 143.089C173.065 143.12 173.133 143.151 173.199 143.182M185.152 145.645C185.152 145.645 181.038 145.478 178.467 145.006C176.322 144.612 175.141 144.071 173.199 143.182M71.5004 42.7734C71.5004 42.7734 91.1514 43.8383 98.2419 45.9681C105.333 48.098 119.514 53.38 119.514 57.4693C119.514 61.5586 117.083 63.8588 115.867 64.4978C115.867 64.4978 105.552 57.8996 98.2419 55.5524C88.665 52.4773 72.7159 52.9966 72.7159 52.9966C72.7159 52.9966 69.846 50.2323 69.6771 47.885C69.5242 45.7591 71.5004 42.7734 71.5004 42.7734ZM137.139 55.5524C134.662 57.0517 132.277 61.303 132.277 61.303C132.277 61.303 131.599 66.0621 132.277 68.9704C132.908 71.6802 133.351 73.4849 135.315 75.36C137.372 77.323 142.001 77.9158 142.001 77.9158C142.001 77.9158 146.409 77.0326 148.686 75.36C151.178 73.5299 153.548 68.9704 153.548 68.9704C153.548 68.9704 154.559 64.1026 153.548 61.303C152.534 58.4937 148.686 55.5524 148.686 55.5524C148.686 55.5524 141.047 53.1868 137.139 55.5524ZM71.5004 69.6094C71.5004 69.6094 91.1514 70.6743 98.2419 72.8042C105.333 74.934 119.514 80.216 119.514 84.3053C119.514 88.3946 117.083 90.6949 115.867 91.3338C115.867 91.3338 105.552 84.7356 98.2419 82.3885C88.665 79.3134 72.7159 79.8326 72.7159 79.8326C72.7159 79.8326 69.846 77.0684 69.6771 74.721C69.5242 72.5951 71.5004 69.6094 71.5004 69.6094ZM71.5004 93.8896C71.5004 93.8896 91.1514 94.9545 98.2419 97.0844C105.333 99.2142 119.514 104.496 119.514 108.586C119.514 112.675 117.083 114.975 115.867 115.614C115.867 115.614 105.552 109.016 98.2419 106.669C88.665 103.594 72.7159 104.113 72.7159 104.113C72.7159 104.113 69.846 101.349 69.6771 99.0013C69.5242 96.8754 71.5004 93.8896 71.5004 93.8896ZM72.7159 119.448C72.7159 119.448 92.3669 120.513 99.4575 122.643C106.548 124.772 120.729 130.054 120.729 134.144C120.729 138.233 118.298 140.533 117.083 141.172C117.083 141.172 106.767 134.574 99.4575 132.227C89.8806 129.152 73.9315 129.671 73.9315 129.671C73.9315 129.671 71.0615 126.907 70.8926 124.559C70.7397 122.433 72.7159 119.448 72.7159 119.448Z" stroke="url(#paint2_linear_331_2164)"/>
<path fill-rule="evenodd" clip-rule="evenodd" d="M357.605 55.8574V181.731L295.496 185.209C269.118 186.685 243.902 196.548 223.522 213.359L215.388 220.068L200.802 236.042L189.255 253.294C189.255 253.294 195.794 222.036 207.488 206.65C216.441 194.87 223.98 190.114 235.946 182.566L235.948 182.565C236.382 182.291 236.822 182.013 237.268 181.731C248.651 174.543 255.667 171.45 268.264 167.035C281.595 162.363 292.13 161.107 303.574 159.743C307.638 159.258 311.817 158.76 316.277 158.09C326.327 156.581 329.382 165.545 329.948 165.374C330.341 165.256 329.538 160.746 329.04 145.311C327.825 107.613 329.04 45.6341 329.04 45.6341H344.842C354.566 45.6341 357.605 55.8574 357.605 55.8574ZM353.351 36.6888C340.588 33.4941 329.04 36.0498 329.04 36.0498C329.04 36.0498 329.862 30.1073 329.04 26.4655C327.629 20.2125 324.141 17.3583 319.56 13.6085C319.085 13.2197 318.598 12.8213 318.1 12.4086C313.269 8.39952 309.754 7.08141 304.11 4.96478C303.914 4.89124 303.715 4.81673 303.514 4.74112C286.75 -1.55325 275.421 1.2528 257.932 4.74112C244.363 7.44757 236.878 10.4311 224.505 16.8812C216.3 21.1586 211.643 23.7012 204.449 29.6603C195.744 36.8707 191.319 41.8137 185 51.3847C185 55.1276 185 60.969 185 60.969C185 60.969 198.525 44.7049 208.703 36.0498C215.244 30.4878 218.988 27.3493 226.328 23.0291C237.794 16.2811 245.025 13.4772 257.932 10.889C275.426 7.38084 286.732 6.13941 303.514 12.4086C307.42 13.8676 309.734 14.5544 313.238 16.8812C317.639 19.8033 321.683 21.1609 322.962 26.4655C323.546 28.8843 322.962 32.8551 322.962 32.8551C322.962 32.8551 321.747 94.8335 322.962 132.532C323.46 147.967 324.263 152.477 323.871 152.595C323.304 152.765 316.122 146.224 310.199 145.311C305.254 144.549 301.561 146.479 297.497 146.963C286.052 148.328 275.517 149.584 262.186 154.256C249.589 158.671 242.573 161.764 231.19 168.952C230.744 169.234 230.303 169.512 229.868 169.787C217.902 177.335 210.363 182.091 201.41 193.871C189.717 209.257 185 225.18 185 225.18C185 225.18 185 245.625 185 258.725C185 271.825 185 279.17 185 292.27C196.05 295.465 184.283 295.465 195.332 292.27C200.756 290.702 206.517 284.09 213.23 276.385C220.192 268.394 228.179 259.228 237.876 253.294C252.058 244.616 261.493 241.636 276.518 236.891C277.394 236.615 278.288 236.332 279.204 236.042C297.744 230.17 308.583 228.101 327.824 225.819C332.509 225.263 336.488 225.423 340.289 225.576C345.882 225.8 351.092 226.009 357.605 223.902C357.605 223.902 364.382 219.447 366.721 214.957C368.713 211.135 369.152 204.095 369.152 204.095V55.8574C369.152 55.8574 366.114 39.8835 353.351 36.6888ZM263.402 206.65C316.885 188.284 357.605 196.427 357.605 196.427C357.605 196.427 358.212 215.596 347.88 212.401C347.88 212.401 296.037 213.414 265.833 225.819C232.406 239.548 192.294 276.935 192.294 276.935C192.294 276.935 209.918 225.017 263.402 206.65Z" fill="#070707"/>
<path d="M233.014 55.2184C235.49 56.7177 237.876 60.969 237.876 60.969C237.876 60.969 238.553 65.7281 237.876 68.6365C237.245 71.3462 236.802 73.1509 234.837 75.026C232.78 76.9891 228.152 77.5818 228.152 77.5818C228.152 77.5818 223.743 76.6987 221.466 75.026C218.974 73.1959 216.604 68.6365 216.604 68.6365C216.604 68.6365 215.594 63.7686 216.604 60.969C217.618 58.1598 221.466 55.2184 221.466 55.2184C221.466 55.2184 229.106 52.8528 233.014 55.2184Z" fill="#0C0B0B"/>
<path d="M298.652 93.5556C298.652 93.5556 279.001 94.6206 271.91 96.7504C264.82 98.8802 250.639 104.162 250.639 108.252C250.639 112.341 253.07 114.641 254.285 115.28C254.285 115.28 264.601 108.682 271.91 106.335C281.487 103.26 297.436 103.779 297.436 103.779C297.436 103.779 300.306 101.015 300.475 98.6673C300.628 96.5414 298.652 93.5556 298.652 93.5556Z" fill="#99C9D3"/>
<path d="M298.652 69.2754C298.652 69.2754 279.001 70.3403 271.91 72.4702C264.82 74.6 250.639 79.882 250.639 83.9713C250.639 88.0606 253.07 90.3609 254.285 90.9998C254.285 90.9998 264.601 84.4016 271.91 82.0545C281.487 78.9794 297.436 79.4987 297.436 79.4987C297.436 79.4987 300.306 76.7344 300.475 74.387C300.628 72.2612 298.652 69.2754 298.652 69.2754Z" fill="#99C9D3"/>
<path d="M298.652 42.4394C298.652 42.4394 279.001 43.5043 271.91 45.6341C264.82 47.764 250.639 53.046 250.639 57.1353C250.639 61.2246 253.07 63.5248 254.285 64.1638C254.285 64.1638 264.601 57.5656 271.91 55.2184C281.487 52.1433 297.436 52.6626 297.436 52.6626C297.436 52.6626 300.306 49.8983 300.475 47.551C300.628 45.4251 298.652 42.4394 298.652 42.4394Z" fill="#99C9D3"/>
<path d="M297.436 119.114C297.436 119.114 277.785 120.179 270.695 122.309C263.604 124.438 249.423 129.72 249.423 133.81C249.423 137.899 251.854 140.199 253.07 140.838C253.07 140.838 263.385 134.24 270.695 131.893C280.272 128.818 296.221 129.337 296.221 129.337C296.221 129.337 299.091 126.573 299.26 124.225C299.413 122.1 297.436 119.114 297.436 119.114Z" fill="#99C9D3"/>
<path d="M185 98.6673H226.328C226.328 98.6673 228.957 99.7762 229.975 101.223C230.735 102.304 231.19 104.418 231.19 104.418V118.475C231.19 118.475 230.089 125.783 228.152 129.976C226.222 134.151 221.466 139.56 221.466 139.56C221.466 139.56 216.422 146.031 212.35 149.145C208.657 151.968 206.343 153.36 202.018 154.895C198.578 156.116 196.478 156.154 192.901 156.812C189.826 157.378 188.095 157.658 185 158.09V145.311C185 145.311 189.114 145.144 191.686 144.672C193.83 144.278 195.011 143.737 196.953 142.848L197.156 142.755C199.396 141.73 200.538 140.896 202.625 139.56C204.819 138.157 206.131 137.464 208.095 135.727C210.539 133.566 211.695 132.058 213.565 129.337C215.928 125.898 216.923 123.689 218.427 119.753C219.267 117.556 219.921 116.344 220.251 114.002C220.529 112.027 220.251 108.891 220.251 108.891H185V98.6673Z" fill="#070707"/>
<path d="M357.605 55.8574V181.731L295.496 185.209C269.118 186.685 243.902 196.548 223.522 213.359L215.388 220.068L200.802 236.042L189.255 253.294C189.255 253.294 195.794 222.036 207.488 206.65C216.441 194.87 223.98 190.114 235.946 182.566L235.948 182.565C236.382 182.291 236.822 182.013 237.268 181.731C248.651 174.543 255.667 171.45 268.264 167.035C281.595 162.363 292.13 161.107 303.574 159.743C307.638 159.258 311.817 158.76 316.277 158.09C326.327 156.581 329.382 165.545 329.948 165.374C330.341 165.256 329.538 160.746 329.04 145.311C327.825 107.613 329.04 45.6341 329.04 45.6341H344.842C354.566 45.6341 357.605 55.8574 357.605 55.8574Z" fill="url(#paint3_radial_331_2164)"/>
<path d="M263.402 206.65C316.885 188.284 357.605 196.427 357.605 196.427C357.605 196.427 358.212 215.596 347.88 212.401C347.88 212.401 296.037 213.414 265.833 225.819C232.406 239.548 192.294 276.935 192.294 276.935C192.294 276.935 209.918 225.017 263.402 206.65Z" fill="url(#paint4_radial_331_2164)"/>
<path d="M185 108.891H220.251C220.251 108.891 220.529 112.027 220.251 114.002C219.921 116.344 219.267 117.556 218.427 119.753C216.923 123.689 215.928 125.898 213.565 129.337C211.695 132.058 210.539 133.566 208.095 135.727C206.131 137.464 204.819 138.157 202.625 139.56C200.538 140.896 199.396 141.73 197.156 142.755L196.953 142.848C195.011 143.737 193.83 144.278 191.686 144.672C189.114 145.144 185 145.311 185 145.311V127.101V108.891Z" fill="#00EEF9"/>
<path d="M357.605 181.731V55.8574C357.605 55.8574 354.566 45.6341 344.842 45.6341M357.605 181.731L295.496 185.209C269.118 186.685 243.902 196.548 223.522 213.359L215.388 220.068L200.802 236.042L189.255 253.294C189.255 253.294 195.794 222.036 207.488 206.65C216.441 194.87 223.98 190.114 235.946 182.566L235.948 182.565C236.382 182.291 236.822 182.013 237.268 181.731C248.651 174.543 255.667 171.45 268.264 167.035C281.595 162.363 292.13 161.107 303.574 159.743C307.638 159.258 311.817 158.76 316.277 158.09C326.327 156.581 329.382 165.545 329.948 165.374C330.341 165.256 329.538 160.746 329.04 145.311C327.825 107.613 329.04 45.6341 329.04 45.6341M357.605 181.731V196.427M357.605 196.427C357.605 196.427 316.885 188.284 263.402 206.65C209.918 225.017 192.294 276.935 192.294 276.935C192.294 276.935 232.406 239.548 265.833 225.819C296.037 213.414 347.88 212.401 347.88 212.401C358.212 215.596 357.605 196.427 357.605 196.427ZM344.842 45.6341C335.118 45.6341 329.04 45.6341 329.04 45.6341M344.842 45.6341H329.04M329.04 45.6341V36.0498M329.04 36.0498C329.04 36.0498 329.862 30.1073 329.04 26.4655C327.629 20.2125 324.141 17.3583 319.56 13.6085C319.085 13.2197 318.598 12.8213 318.1 12.4086C313.269 8.39952 309.754 7.08141 304.11 4.96478C303.914 4.89124 303.715 4.81673 303.514 4.74112C286.75 -1.55325 275.421 1.2528 257.932 4.74112C244.363 7.44757 236.878 10.4311 224.505 16.8812C216.3 21.1586 211.643 23.7012 204.449 29.6603C195.744 36.8707 191.319 41.8137 185 51.3847C185 55.1276 185 60.969 185 60.969C185 60.969 198.525 44.7049 208.703 36.0498C215.244 30.4878 218.988 27.3493 226.328 23.0291C237.794 16.2811 245.025 13.4772 257.932 10.889C275.426 7.38084 286.732 6.13941 303.514 12.4086C307.42 13.8676 309.734 14.5544 313.238 16.8812C317.639 19.8033 321.683 21.1609 322.962 26.4655C323.546 28.8843 322.962 32.8551 322.962 32.8551C322.962 32.8551 321.747 94.8335 322.962 132.532C323.46 147.967 324.263 152.477 323.871 152.595C323.304 152.765 316.122 146.224 310.199 145.311C305.254 144.549 301.561 146.479 297.497 146.963C286.052 148.328 275.517 149.584 262.186 154.256C249.589 158.671 242.573 161.764 231.19 168.952C230.744 169.234 230.303 169.512 229.868 169.787C217.902 177.335 210.363 182.091 201.41 193.871C189.717 209.257 185 225.18 185 225.18C185 225.18 185 245.625 185 258.725C185 271.825 185 279.17 185 292.27C196.05 295.465 184.283 295.465 195.332 292.27C200.756 290.702 206.517 284.09 213.23 276.385C220.192 268.394 228.179 259.228 237.876 253.294C252.058 244.616 261.493 241.636 276.518 236.891C277.394 236.615 278.288 236.332 279.204 236.042C297.744 230.17 308.583 228.101 327.824 225.819C332.509 225.263 336.488 225.423 340.289 225.576C345.882 225.8 351.092 226.009 357.605 223.902C357.605 223.902 364.382 219.447 366.721 214.957C368.713 211.135 369.152 204.095 369.152 204.095V55.8574C369.152 55.8574 366.114 39.8835 353.351 36.6888C340.588 33.4941 329.04 36.0498 329.04 36.0498ZM185 98.6673H226.328C226.328 98.6673 228.957 99.7762 229.975 101.223C230.735 102.304 231.19 104.418 231.19 104.418V118.475C231.19 118.475 230.089 125.783 228.152 129.976C226.222 134.151 221.466 139.56 221.466 139.56C221.466 139.56 216.422 146.031 212.35 149.145C208.657 151.968 206.343 153.36 202.018 154.895C198.578 156.116 196.478 156.154 192.901 156.812C189.826 157.378 188.095 157.658 185 158.09M185 98.6673C185 98.6673 185 102.68 185 108.891M185 98.6673V108.891M185 158.09V145.311M185 158.09C185 153.94 185 150.012 185 145.311M185 108.891H220.251C220.251 108.891 220.529 112.027 220.251 114.002C219.921 116.344 219.267 117.556 218.427 119.753C216.923 123.689 215.928 125.898 213.565 129.337C211.695 132.058 210.539 133.566 208.095 135.727C206.131 137.464 204.819 138.157 202.625 139.56C200.538 140.896 199.396 141.73 197.156 142.755M185 108.891C185 118 185 132.476 185 145.311M185 108.891V127.101V145.311M197.156 142.755L196.953 142.848M197.156 142.755C197.087 142.786 197.02 142.817 196.953 142.848M185 145.311C185 145.311 189.114 145.144 191.686 144.672C193.83 144.278 195.011 143.737 196.953 142.848M298.652 42.4394C298.652 42.4394 279.001 43.5043 271.91 45.6341C264.82 47.764 250.639 53.046 250.639 57.1353C250.639 61.2246 253.07 63.5248 254.285 64.1638C254.285 64.1638 264.601 57.5656 271.91 55.2184C281.487 52.1433 297.436 52.6626 297.436 52.6626C297.436 52.6626 300.306 49.8983 300.475 47.551C300.628 45.4251 298.652 42.4394 298.652 42.4394ZM233.014 55.2184C235.49 56.7177 237.876 60.969 237.876 60.969C237.876 60.969 238.553 65.7281 237.876 68.6365C237.245 71.3462 236.802 73.1509 234.837 75.026C232.78 76.9891 228.152 77.5818 228.152 77.5818C228.152 77.5818 223.743 76.6987 221.466 75.026C218.974 73.1959 216.604 68.6365 216.604 68.6365C216.604 68.6365 215.594 63.7686 216.604 60.969C217.618 58.1598 221.466 55.2184 221.466 55.2184C221.466 55.2184 229.106 52.8528 233.014 55.2184ZM298.652 69.2754C298.652 69.2754 279.001 70.3403 271.91 72.4702C264.82 74.6 250.639 79.882 250.639 83.9713C250.639 88.0606 253.07 90.3609 254.285 90.9998C254.285 90.9998 264.601 84.4016 271.91 82.0545C281.487 78.9794 297.436 79.4987 297.436 79.4987C297.436 79.4987 300.306 76.7344 300.475 74.387C300.628 72.2612 298.652 69.2754 298.652 69.2754ZM298.652 93.5556C298.652 93.5556 279.001 94.6206 271.91 96.7504C264.82 98.8802 250.639 104.162 250.639 108.252C250.639 112.341 253.07 114.641 254.285 115.28C254.285 115.28 264.601 108.682 271.91 106.335C281.487 103.26 297.436 103.779 297.436 103.779C297.436 103.779 300.306 101.015 300.475 98.6673C300.628 96.5414 298.652 93.5556 298.652 93.5556ZM297.436 119.114C297.436 119.114 277.785 120.179 270.695 122.309C263.604 124.438 249.423 129.72 249.423 133.81C249.423 137.899 251.854 140.199 253.07 140.838C253.07 140.838 263.385 134.24 270.695 131.893C280.272 128.818 296.221 129.337 296.221 129.337C296.221 129.337 299.091 126.573 299.26 124.225C299.413 122.1 297.436 119.114 297.436 119.114Z" stroke="#EAF4F2"/>
<path d="M178.467 109.622H195.484L191.23 144.126C191.23 144.126 186.368 144.765 185.76 145.403C185.33 145.855 182.113 144.765 182.113 144.765L178.467 109.622Z" fill="#00EEF9"/>
<defs>
<radialGradient id="paint0_radial_331_2164" cx="0" cy="0" r="1" gradientUnits="userSpaceOnUse" gradientTransform="translate(58.1267 59.9783) rotate(71.5665) scale(147.991 93.8483)">
<stop stop-color="#FF0035"/>
<stop offset="0.203828" stop-color="#E2CC1F"/>
<stop offset="0.597853" stop-color="#F00000"/>
<stop offset="1" stop-color="#F5BC12"/>
</radialGradient>
<radialGradient id="paint1_radial_331_2164" cx="0" cy="0" r="1" gradientUnits="userSpaceOnUse" gradientTransform="translate(93.076 148.167) rotate(90) scale(146.833 92.076)">
<stop stop-color="#CD6AF9"/>
<stop offset="0.145" stop-color="#B35DD9"/>
<stop offset="1" stop-color="#793F93"/>
</radialGradient>
<linearGradient id="paint2_linear_331_2164" x1="93.076" y1="1.33398" x2="93.076" y2="295" gradientUnits="userSpaceOnUse">
<stop stop-color="#EAF4F2"/>
<stop offset="0.62" stop-color="#D4DDDB"/>
<stop offset="1"/>
</linearGradient>
<radialGradient id="paint3_radial_331_2164" cx="0" cy="0" r="1" gradientUnits="userSpaceOnUse" gradientTransform="translate(312.026 59.6444) rotate(108.434) scale(147.991 93.8483)">
<stop stop-color="#FF0035"/>
<stop offset="0.203828" stop-color="#E2CC1F"/>
<stop offset="0.597853" stop-color="#F00000"/>
<stop offset="1" stop-color="#F5BC12"/>
</radialGradient>
<radialGradient id="paint4_radial_331_2164" cx="0" cy="0" r="1" gradientUnits="userSpaceOnUse" gradientTransform="translate(277.076 147.833) rotate(90) scale(146.833 92.076)">
<stop stop-color="#CD6AF9"/>
<stop offset="0.145" stop-color="#B35DD9"/>
<stop offset="1" stop-color="#793F93"/>
</radialGradient>
</defs>
</svg>
